<svg width="20" height="20" viewBox="0 0 20 20" fill="none" xmlns="http://www.w3.org/2000/svg">
<path opacity="0.1" fill-rule="evenodd" clip-rule="evenodd" d="M6 7L6.39403 5.42388C6.61069 4.55722 6.71903 4.12389 6.96062 3.80124C7.17378 3.51657 7.459 3.29388 7.78687 3.15613C8.15848 3 8.60515 3 9.49848 3H10.5015C11.3949 3 11.8415 3 12.2131 3.15613C12.541 3.29388 12.8262 3.51657 13.0394 3.80124C13.281 4.12389 13.3893 4.55722 13.606 5.42388L13.606 5.42389L14 7H15L14.2882 14.1184C14.1864 15.1364 14.1355 15.6454 13.9044 16.03C13.7009 16.3687 13.4016 16.6396 13.0443 16.8084C12.6387 17 12.1271 17 11.104 17H8.89596C7.87287 17 7.36133 17 6.95568 16.8084C6.59838 16.6396 6.2991 16.3687 6.09559 16.03C5.86454 15.6454 5.81364 15.1364 5.71184 14.1184L5 7H6Z" fill="currentColor"/>
<path fill-rule="evenodd" clip-rule="evenodd" d="M9.49848 2.00001L9.34133 1.99984C8.60656 1.99868 7.96254 1.99765 7.39953 2.2342C6.90772 2.44083 6.4799 2.77486 6.16015 3.20187C5.79412 3.6907 5.63892 4.31574 5.46184 5.02885L5.42389 5.18136L5.21922 6H5.01345H4.98895H3C2.44772 6 2 6.44772 2 7C2 7.55229 2.44772 8 3 8H4.09501L4.7168 14.2179L4.72041 14.254L4.72041 14.254C4.76821 14.7322 4.80969 15.1471 4.87099 15.4885C4.93601 15.8506 5.03518 16.2067 5.2384 16.545C5.54366 17.0531 5.99259 17.4594 6.52853 17.7125C6.88533 17.8811 7.24957 17.9443 7.61636 17.973C7.96215 18 8.37911 18 8.85972 18H8.89596H11.104H11.1403C11.6209 18 12.0379 18 12.3836 17.973C12.7504 17.9443 13.1147 17.8811 13.4715 17.7125C14.0074 17.4594 14.4563 17.0531 14.7616 16.545C14.9648 16.2067 15.064 15.8506 15.129 15.4885C15.1903 15.1472 15.2318 14.7323 15.2796 14.2542L15.2796 14.2542L15.2796 14.2541L15.2796 14.254L15.2796 14.254L15.2832 14.2179L15.905 8H17C17.5523 8 18 7.55229 18 7C18 6.44772 17.5523 6 17 6H15.011H14.9866H14.7808L14.5761 5.18136L14.5382 5.02885C14.3611 4.31575 14.2059 3.6907 13.8398 3.20187C13.5201 2.77486 13.0923 2.44083 12.6005 2.2342C12.0375 1.99765 11.3934 1.99868 10.6587 1.99984L10.5015 2.00001H9.49848ZM12.7192 6L12.6358 5.66643C12.3966 4.70968 12.3302 4.52254 12.2389 4.40063C12.1323 4.25829 11.9897 4.14695 11.8258 4.07807C11.6854 4.01908 11.4877 4.00001 10.5015 4.00001H9.49848C8.51229 4.00001 8.31462 4.01908 8.17421 4.07807C8.01027 4.14695 7.86767 4.25829 7.76109 4.40063C7.6698 4.52254 7.60336 4.70968 7.36417 5.66643L7.28078 6H12.7192ZM6.70688 14.0189L6.10499 8H13.895L13.2931 14.0189C13.2407 14.5435 13.2063 14.8798 13.1605 15.135C13.1169 15.378 13.075 15.4687 13.0472 15.515C12.9455 15.6844 12.7958 15.8198 12.6172 15.9042C12.5683 15.9273 12.474 15.9599 12.2278 15.9791C11.9693 15.9993 11.6312 16 11.104 16H8.89596C8.36878 16 8.03071 15.9993 7.77221 15.9791C7.52604 15.9599 7.43168 15.9273 7.38282 15.9042C7.20418 15.8198 7.05454 15.6844 6.95278 15.515C6.92496 15.4687 6.88315 15.378 6.83951 15.135C6.79368 14.8798 6.75933 14.5435 6.70688 14.0189ZM9.24628 10.6754C9.20506 10.2632 8.83753 9.96251 8.42537 10.0037C8.01321 10.0449 7.71251 10.4125 7.75372 10.8246L8.00372 13.3246C8.04494 13.7368 8.41247 14.0375 8.82463 13.9963C9.23679 13.9551 9.53749 13.5875 9.49628 13.1754L9.24628 10.6754ZM11.5746 10.0037C11.9868 10.0449 12.2875 10.4125 12.2463 10.8246L11.9963 13.3246C11.9551 13.7368 11.5875 14.0375 11.1754 13.9963C10.7632 13.9551 10.4625 13.5875 10.5037 13.1754L10.7537 10.6754C10.7949 10.2632 11.1625 9.96251 11.5746 10.0037Z" fill="currentColor"/>
</svg>
