<svg width="20" height="20" viewBox="0 0 20 20" fill="currentColor" xmlns="http://www.w3.org/2000/svg">
<path fill-rule="evenodd" clip-rule="evenodd" d="M10 17C13.866 17 17 13.866 17 10C17 6.13401 13.866 3 10 3C6.13401 3 3 6.13401 3 10C3 13.866 6.13401 17 10 17ZM10 19C14.9706 19 19 14.9706 19 10C19 5.02944 14.9706 1 10 1C5.02944 1 1 5.02944 1 10C1 14.9706 5.02944 19 10 19ZM11.25 13.75C11.25 14.4404 10.6904 15 10 15C9.30964 15 8.75 14.4404 8.75 13.75C8.75 13.0596 9.30964 12.5 10 12.5C10.6904 12.5 11.25 13.0596 11.25 13.75ZM9 8C9 7.44772 9.44771 7 10 7C10.5523 7 11 7.44772 11 8C11 8.18908 10.951 8.28674 10.4 8.7L10.3425 8.74291C9.87484 9.09118 9 9.74267 9 11C9 11.5523 9.44772 12 10 12C10.5523 12 11 11.5523 11 11C11 10.8109 11.049 10.7133 11.6 10.3L11.6575 10.2571C12.1252 9.90882 13 9.25733 13 8C13 6.34315 11.6569 5 10 5C8.34315 5 7 6.34315 7 8C7 8.55228 7.44772 9 8 9C8.55228 9 9 8.55228 9 8Z" fill="currentColor"/>
</svg>
