<svg width="20" height="20" viewBox="0 0 20 20" fill="none" xmlns="http://www.w3.org/2000/svg">
<path opacity="0.15" fill-rule="evenodd" clip-rule="evenodd" d="M9.21799 3.092C9 3.51983 9 4.07988 9 5.19998V6.79998C9 7.92009 9 8.48014 9.21799 8.90797C9.40973 9.28429 9.71569 9.59025 10.092 9.782C10.5198 9.99998 11.0799 9.99998 12.2 9.99998H13.8C14.9201 9.99998 15.4802 9.99998 15.908 9.782C16.2843 9.59025 16.5903 9.28429 16.782 8.90797C17 8.48014 17 7.92009 17 6.79998V5.19998C17 4.07988 17 3.51983 16.782 3.092C16.5903 2.71568 16.2843 2.40972 15.908 2.21797C15.4802 1.99998 14.9201 1.99998 13.8 1.99998H12.2C11.0799 1.99998 10.5198 1.99998 10.092 2.21797C9.71569 2.40972 9.40973 2.71568 9.21799 3.092ZM3.21799 11.092C3 11.5198 3 12.0799 3 13.2V14.8C3 15.9201 3 16.4801 3.21799 16.908C3.40973 17.2843 3.71569 17.5903 4.09202 17.782C4.51984 18 5.0799 18 6.2 18H7.8C8.9201 18 9.48016 18 9.90798 17.782C10.2843 17.5903 10.5903 17.2843 10.782 16.908C11 16.4801 11 15.9201 11 14.8V13.2C11 12.0799 11 11.5198 10.782 11.092C10.5903 10.7157 10.2843 10.4097 9.90798 10.218C9.48016 9.99998 8.9201 9.99998 7.8 9.99998H6.2C5.0799 9.99998 4.51984 9.99998 4.09202 10.218C3.71569 10.4097 3.40973 10.7157 3.21799 11.092Z" fill="currentColor"/>
<path fill-rule="evenodd" clip-rule="evenodd" d="M13.2 1L13.1615 1C12.6343 0.999983 12.1795 0.999967 11.805 1.03057C11.4096 1.06287 11.0164 1.13419 10.638 1.32698C10.0735 1.6146 9.6146 2.07354 9.32698 2.63803C9.13419 3.01641 9.06287 3.40963 9.03057 3.80497C8.99997 4.17955 8.99998 4.63431 9 5.16146L9 5.2V9H5.2L5.16146 9C4.63431 8.99998 4.17955 8.99997 3.80497 9.03057C3.40963 9.06287 3.01641 9.13419 2.63803 9.32698C2.07354 9.6146 1.6146 10.0735 1.32698 10.638C1.13419 11.0164 1.06287 11.4096 1.03057 11.805C0.999967 12.1795 0.999982 12.6343 1 13.1615V13.2V14.8V14.8385C0.999982 15.3657 0.999967 15.8205 1.03057 16.195C1.06287 16.5904 1.13419 16.9836 1.32698 17.362C1.6146 17.9265 2.07354 18.3854 2.63803 18.673C3.01641 18.8658 3.40963 18.9371 3.80497 18.9694C4.17955 19 4.63432 19 5.16148 19H5.2H6.8H6.83852C7.36568 19 7.82045 19 8.19503 18.9694C8.59037 18.9371 8.98359 18.8658 9.36197 18.673C9.92646 18.3854 10.3854 17.9265 10.673 17.362C10.8658 16.9836 10.9371 16.5904 10.9694 16.195C11 15.8205 11 15.3657 11 14.8386V14.8385V14.8V11H14.8H14.8385H14.8386C15.3657 11 15.8205 11 16.195 10.9694C16.5904 10.9371 16.9836 10.8658 17.362 10.673C17.9265 10.3854 18.3854 9.92646 18.673 9.36197C18.8658 8.98359 18.9371 8.59037 18.9694 8.19503C19 7.82045 19 7.36568 19 6.83852V6.8V5.2V5.16148C19 4.63432 19 4.17955 18.9694 3.80497C18.9371 3.40963 18.8658 3.01641 18.673 2.63803C18.3854 2.07354 17.9265 1.6146 17.362 1.32698C16.9836 1.13419 16.5904 1.06287 16.195 1.03057C15.8205 0.999967 15.3657 0.999983 14.8385 1L14.8 1H13.2ZM11 9H14.8C15.3766 9 15.7488 8.99922 16.0322 8.97607C16.3038 8.95388 16.4045 8.9162 16.454 8.89101C16.6422 8.79513 16.7951 8.64215 16.891 8.45399C16.9162 8.40455 16.9539 8.30383 16.9761 8.03217C16.9992 7.74883 17 7.37656 17 6.8V5.2C17 4.62345 16.9992 4.25117 16.9761 3.96784C16.9539 3.69617 16.9162 3.59546 16.891 3.54601C16.7951 3.35785 16.6422 3.20487 16.454 3.109C16.4045 3.0838 16.3038 3.04612 16.0322 3.02393C15.7488 3.00078 15.3766 3 14.8 3H13.2C12.6234 3 12.2512 3.00078 11.9678 3.02393C11.6962 3.04612 11.5955 3.0838 11.546 3.109C11.3578 3.20487 11.2049 3.35785 11.109 3.54601C11.0838 3.59546 11.0461 3.69617 11.0239 3.96784C11.0008 4.25117 11 4.62345 11 5.2V9ZM9 11H5.2C4.62345 11 4.25117 11.0008 3.96784 11.0239C3.69617 11.0461 3.59545 11.0838 3.54601 11.109C3.35785 11.2049 3.20487 11.3578 3.10899 11.546C3.0838 11.5955 3.04612 11.6962 3.02393 11.9678C3.00078 12.2512 3 12.6234 3 13.2V14.8C3 15.3766 3.00078 15.7488 3.02393 16.0322C3.04612 16.3038 3.0838 16.4045 3.10899 16.454C3.20487 16.6422 3.35785 16.7951 3.54601 16.891C3.59545 16.9162 3.69617 16.9539 3.96784 16.9761C4.25117 16.9992 4.62345 17 5.2 17H6.8C7.37655 17 7.74883 16.9992 8.03217 16.9761C8.30383 16.9539 8.40455 16.9162 8.45399 16.891C8.64215 16.7951 8.79513 16.6422 8.89101 16.454C8.9162 16.4045 8.95388 16.3038 8.97607 16.0322C8.99922 15.7488 9 15.3766 9 14.8V11ZM15.2929 12.2929C15.6834 11.9024 16.3166 11.9024 16.7071 12.2929L18.7071 14.2929C19.0976 14.6834 19.0976 15.3166 18.7071 15.7071C18.3166 16.0976 17.6834 16.0976 17.2929 15.7071L17 15.4142V16C17 17.6569 15.6569 19 14 19H13C12.4477 19 12 18.5523 12 18C12 17.4477 12.4477 17 13 17H14C14.5523 17 15 16.5523 15 16V15.4142L14.7071 15.7071C14.3166 16.0976 13.6834 16.0976 13.2929 15.7071C12.9024 15.3166 12.9024 14.6834 13.2929 14.2929L15.2929 12.2929ZM3.29289 7.70712C3.68342 8.09765 4.31658 8.09765 4.70711 7.70712L6.70711 5.70712C7.09763 5.3166 7.09763 4.68343 6.70711 4.29291C6.31658 3.90239 5.68342 3.90239 5.29289 4.29291L5 4.5858V4.00002C5 3.44773 5.44772 3.00002 6 3.00002H7C7.55229 3.00002 8 2.5523 8 2.00002C8 1.44773 7.55229 1.00002 7 1.00002H6C4.34315 1.00002 3 2.34316 3 4.00002V4.5858L2.70711 4.29291C2.31658 3.90239 1.68342 3.90239 1.29289 4.29291C0.90237 4.68343 0.90237 5.3166 1.29289 5.70712L3.29289 7.70712Z" fill="currentColor"/>
</svg>
