<svg width="20" height="20" viewBox="0 0 20 20" fill="none" xmlns="http://www.w3.org/2000/svg">
<path opacity="0.1" d="M19 10C19 14.4183 15.4183 18 11 18C6.58172 18 3 14.4183 3 10C3 5.58172 6.58172 2 11 2C15.4183 2 19 5.58172 19 10Z" fill="currentColor"/>
<path fill-rule="evenodd" clip-rule="evenodd" d="M5.08296 9C5.55904 6.16229 8.027 4 11 4C14.3137 4 17 6.68629 17 10C17 13.3137 14.3137 16 11 16C9.77183 16 8.63264 15.6321 7.68291 15.0006C7.22301 14.6948 6.60229 14.8198 6.29651 15.2797C5.99072 15.7396 6.11566 16.3603 6.57556 16.6661C7.84322 17.5089 9.36578 18 11 18C15.4183 18 19 14.4183 19 10C19 5.58172 15.4183 2 11 2C6.92038 2 3.55399 5.05369 3.06189 9H2.00003C1.59557 9 1.23093 9.24364 1.07615 9.61732C0.921369 9.99099 1.00692 10.4211 1.29292 10.7071L3.29292 12.7071C3.68345 13.0976 4.31661 13.0976 4.70714 12.7071L6.70714 10.7071C6.99313 10.4211 7.07869 9.99099 6.92391 9.61732C6.76913 9.24364 6.40449 9 6.00003 9H5.08296Z" fill="currentColor"/>
</svg>
