<svg width="20" height="20" viewBox="0 0 20 20" fill="currentColor" xmlns="http://www.w3.org/2000/svg">
<path opacity="0.1" fill-rule="evenodd" clip-rule="evenodd" d="M5 4.66666C5 6.13942 6.19391 7.33333 7.66667 7.33333H10.4026H13.1385C14.6113 7.33333 15.8052 6.13942 15.8052 4.66666C15.8052 3.19391 14.6113 2 13.1385 2H10.4026H7.66667C6.19391 2 5 3.19391 5 4.66666ZM7.65314 12.6667C6.1866 12.6594 5 11.4683 5 10.0001C5 8.5273 6.19391 7.3334 7.66667 7.3334H10.4026V10.0001V12.6667V12.6667V15.2987C10.4026 16.7906 9.17576 18 7.68387 18C6.21111 18 5 16.8061 5 15.3333C5 13.8651 6.1866 12.674 7.65314 12.6667ZM10.4026 10.0001C10.4026 8.5273 11.5965 7.3334 13.0693 7.3334H13.1385C14.6113 7.3334 15.8052 8.5273 15.8052 10.0001C15.8052 11.4728 14.6113 12.6667 13.1385 12.6667H13.0693C11.5965 12.6667 10.4026 11.4728 10.4026 10.0001Z" fill="currentColor"/>
<path fill-rule="evenodd" clip-rule="evenodd" d="M4 4.66666C4 2.64162 5.64162 1 7.66667 1H9.4026H10.4026H11.4026H13.1385C15.1636 1 16.8052 2.64162 16.8052 4.66666C16.8052 5.71737 16.3633 6.66485 15.6551 7.33337C16.3633 8.00188 16.8052 8.94936 16.8052 10.0001C16.8052 12.0251 15.1636 13.6667 13.1385 13.6667H13.0693C12.4691 13.6667 11.9026 13.5225 11.4026 13.2669V13.6667V15.2987C11.4026 17.3512 9.71966 19 7.68387 19C5.66721 19 4 17.3667 4 15.3333C4 14.2827 4.44191 13.3352 5.15001 12.6667C4.44191 11.9982 4 11.0507 4 10.0001C4 8.94936 4.44194 8.00188 5.15008 7.33336C4.44194 6.66485 4 5.71737 4 4.66666ZM9.4026 10.0001V8.3334H7.66667C6.74619 8.3334 6 9.07959 6 10.0001C6 10.9163 6.7393 11.6598 7.6539 11.6667L7.66667 11.6667H9.4026V10.0001ZM11.4026 10.0001C11.4026 10.9205 12.1488 11.6667 13.0693 11.6667H13.1385C14.059 11.6667 14.8052 10.9205 14.8052 10.0001C14.8052 9.07959 14.059 8.3334 13.1385 8.3334H13.0693C12.1488 8.3334 11.4026 9.07959 11.4026 10.0001ZM7.66667 13.6667L7.6539 13.6667C6.7393 13.6736 6 14.4171 6 15.3333C6 16.2455 6.75501 17 7.68387 17C8.63186 17 9.4026 16.2299 9.4026 15.2987V13.6667H7.66667ZM7.66667 3H9.4026V6.33333H7.66667C6.74619 6.33333 6 5.58714 6 4.66666C6 3.74619 6.74619 3 7.66667 3ZM11.4026 6.33333V3H13.1385C14.059 3 14.8052 3.74619 14.8052 4.66666C14.8052 5.58714 14.059 6.33333 13.1385 6.33333H11.4026Z" fill="currentColor"/>
</svg>
