<svg xmlns="http://www.w3.org/2000/svg" width="20" height="20" fill="currentColor" viewBox="0 0 20 20">
  <path fill-rule="evenodd" d="M2.707 7.293 4 8.586v-.253a6.333 6.333 0 0 1 11.4-3.8 1 1 0 0 1-1.6 1.2 4.333 4.333 0 0 0-7.8 2.6v.253l1.293-1.293a1 1 0 0 1 1.414 1.414l-3 3a.997.997 0 0 1-1.418-.004L1.293 8.707a1 1 0 0 1 1.414-1.414ZM14 11.414l-1.293 1.293a1 1 0 0 1-1.414-1.414l3-3a1 1 0 0 1 1.414 0l3 3a1 1 0 0 1-1.414 1.414L16 11.414V12a6 6 0 0 1-10.8 3.601A1 1 0 0 1 6.8 14.4 4 4 0 0 0 14 12v-.586Z" clip-rule="evenodd"/>
</svg>
