<svg width="20" height="20" viewBox="0 0 20 20" fill="currentColor" xmlns="http://www.w3.org/2000/svg">
<path fill-rule="evenodd" clip-rule="evenodd" d="M14.7071 9.70711L10.7071 13.7071C10.3166 14.0976 9.68342 14.0976 9.29289 13.7071L5.29289 9.70711C4.90237 9.31658 4.90237 8.68342 5.29289 8.29289C5.68342 7.90237 6.31658 7.90237 6.70711 8.29289L9 10.5858V3C9 2.44771 9.44772 2 10 2C10.5523 2 11 2.44771 11 3V10.5858L13.2929 8.29289C13.6834 7.90237 14.3166 7.90237 14.7071 8.29289C15.0976 8.68342 15.0976 9.31658 14.7071 9.70711ZM4 13C4 12.4477 3.55229 12 3 12C2.44772 12 2 12.4477 2 13V13.8V13.8385C1.99998 14.3657 1.99997 14.8205 2.03057 15.195C2.06287 15.5904 2.13419 15.9836 2.32698 16.362C2.6146 16.9265 3.07354 17.3854 3.63803 17.673C4.01641 17.8658 4.40963 17.9371 4.80497 17.9694C5.17954 18 5.63431 18 6.16146 18H6.2H13.8H13.8385C14.3657 18 14.8205 18 15.195 17.9694C15.5904 17.9371 15.9836 17.8658 16.362 17.673C16.9265 17.3854 17.3854 16.9265 17.673 16.362C17.8658 15.9836 17.9371 15.5904 17.9694 15.195C18 14.8205 18 14.3657 18 13.8385V13.8V13C18 12.4477 17.5523 12 17 12C16.4477 12 16 12.4477 16 13V13.8C16 14.3766 15.9992 14.7488 15.9761 15.0322C15.9539 15.3038 15.9162 15.4045 15.891 15.454C15.7951 15.6422 15.6422 15.7951 15.454 15.891C15.4045 15.9162 15.3038 15.9539 15.0322 15.9761C14.7488 15.9992 14.3766 16 13.8 16H6.2C5.62345 16 5.25117 15.9992 4.96784 15.9761C4.69617 15.9539 4.59545 15.9162 4.54601 15.891C4.35785 15.7951 4.20487 15.6422 4.10899 15.454C4.0838 15.4045 4.04612 15.3038 4.02393 15.0322C4.00078 14.7488 4 14.3766 4 13.8V13Z" fill="currentColor"/>
</svg>
