<svg width="20" height="20" viewBox="0 0 20 20" fill="currentColor" xmlns="http://www.w3.org/2000/svg">
<path fill-rule="evenodd" clip-rule="evenodd" d="M12 2H10.1615C9.63433 1.99998 9.17954 1.99997 8.80497 2.03057C8.40963 2.06287 8.01641 2.13419 7.63803 2.32698C7.07354 2.6146 6.6146 3.07354 6.32698 3.63803C6.13419 4.01641 6.06287 4.40963 6.03057 4.80497C6.00314 5.14076 6.00031 5.54099 6.00003 6.00003C5.54098 6.00031 5.14076 6.00314 4.80497 6.03057C4.40963 6.06287 4.01641 6.13419 3.63803 6.32698C3.07354 6.6146 2.6146 7.07354 2.32698 7.63803C2.13419 8.01641 2.06287 8.40963 2.03057 8.80497C1.99997 9.17954 1.99998 9.63429 2 10.1614V13.8385C1.99998 14.3657 1.99997 14.8205 2.03057 15.195C2.06287 15.5904 2.13419 15.9836 2.32698 16.362C2.6146 16.9265 3.07355 17.3854 3.63803 17.673C4.01641 17.8658 4.40963 17.9371 4.80497 17.9694C5.17952 18 5.63425 18 6.16136 18H9.83853C10.3656 18 10.8205 18 11.195 17.9694C11.5904 17.9371 11.9836 17.8658 12.362 17.673C12.9265 17.3854 13.3854 16.9265 13.673 16.362C13.8658 15.9836 13.9371 15.5904 13.9694 15.195C13.9969 14.8592 13.9997 14.459 14 14C14.459 13.9997 14.8592 13.9969 15.195 13.9694C15.5904 13.9371 15.9836 13.8658 16.362 13.673C16.9265 13.3854 17.3854 12.9265 17.673 12.362C17.8658 11.9836 17.9371 11.5904 17.9694 11.195C18 10.8205 18 10.3658 18 9.83865V8C18 7.86492 17.9594 7.70729 17.9111 7.57922C17.8896 7.52236 17.8588 7.44437 17.8176 7.34827C17.7353 7.15623 17.6111 6.89092 17.4367 6.57686C17.0883 5.94979 16.535 5.12083 15.7071 4.2929C14.8792 3.46496 14.0502 2.91172 13.4231 2.56335C13.1091 2.38887 12.8438 2.26472 12.6517 2.18242L12.6403 2.17752C12.4358 2.08982 12.2263 2 12 2ZM11.9999 14H10.1615C9.70023 14 9.29437 14 8.94918 13.9795C8.89987 13.9766 8.8518 13.9733 8.80497 13.9694C8.45905 13.9412 8.11475 13.883 7.78059 13.7398C7.73286 13.7193 7.68533 13.6971 7.63803 13.673C7.07355 13.3854 6.6146 12.9265 6.32698 12.362C6.13419 11.9836 6.06287 11.5904 6.03057 11.195C5.99997 10.8205 5.99998 10.3657 6 9.83855L6 8.00007C5.5349 8.00052 5.21698 8.00357 4.96784 8.02393C4.69618 8.04613 4.59546 8.0838 4.54601 8.109C4.35785 8.20487 4.20487 8.35785 4.109 8.54601C4.0838 8.59546 4.04613 8.69618 4.02393 8.96784C4.00078 9.25118 4 9.62345 4 10.2V13.8C4 14.3766 4.00078 14.7488 4.02393 15.0322C4.04613 15.3038 4.0838 15.4045 4.109 15.454C4.20487 15.6422 4.35785 15.7951 4.54601 15.891C4.59546 15.9162 4.69618 15.9539 4.96784 15.9761C5.25118 15.9992 5.62345 16 6.2 16H9.8C10.3766 16 10.7488 15.9992 11.0322 15.9761C11.3038 15.9539 11.4045 15.9162 11.454 15.891C11.6422 15.7951 11.7951 15.6422 11.891 15.454C11.9162 15.4045 11.9539 15.3038 11.9761 15.0322C11.9964 14.783 11.9995 14.4651 11.9999 14ZM13.8 12C14.3766 12 14.7488 11.9992 15.0322 11.9761C15.3038 11.9539 15.4045 11.9162 15.454 11.891C15.6422 11.7951 15.7951 11.6422 15.891 11.454C15.9162 11.4045 15.9539 11.3038 15.9761 11.0322C15.9992 10.7488 16 10.3766 16 9.8V9L15.1615 9C14.6343 9.00002 14.1795 9.00004 13.805 8.96943C13.4096 8.93713 13.0164 8.86582 12.638 8.67302C12.0735 8.3854 11.6146 7.92646 11.327 7.36197C11.1342 6.98359 11.0629 6.59038 11.0306 6.19503C11 5.82046 11 5.3657 11 4.83855L11 4H10.2C9.62345 4 9.25118 4.00078 8.96784 4.02393C8.69618 4.04613 8.59546 4.0838 8.54601 4.109C8.35785 4.20487 8.20487 4.35785 8.109 4.54601C8.0838 4.59546 8.04613 4.69618 8.02393 4.96784C8.00078 5.25118 8 5.62345 8 6.2V9.8C8 10.3766 8.00078 10.7488 8.02393 11.0322C8.04612 11.3038 8.0838 11.4045 8.10899 11.454C8.10899 11.454 8.10899 11.454 8.10899 11.454C8.20486 11.6421 8.35785 11.7951 8.54601 11.891C8.59546 11.9162 8.69618 11.9539 8.96784 11.9761C9.25118 11.9992 9.62345 12 10.2 12H13.8ZM14.2929 5.70711C14.7414 6.15557 15.0895 6.60358 15.3537 7H15.2C14.6234 7 14.2512 6.99923 13.9678 6.97608C13.6962 6.95388 13.5955 6.9162 13.546 6.89101C13.3579 6.79514 13.2049 6.64216 13.109 6.45399C13.0838 6.40455 13.0461 6.30383 13.0239 6.03217C13.0008 5.74883 13 5.37656 13 4.8V4.6463C13.3964 4.91051 13.8444 5.25864 14.2929 5.70711Z" fill="currentColor"/>
</svg>
