<svg width="20" height="20" viewBox="0 0 20 20" fill="currentColor" xmlns="http://www.w3.org/2000/svg">
<path fill-rule="evenodd" clip-rule="evenodd" d="M3.29289 6.70711C2.90237 6.31658 2.90237 5.68342 3.29289 5.29289L6.29289 2.29289C6.68342 1.90237 7.31658 1.90237 7.70711 2.29289C8.09763 2.68342 8.09763 3.31658 7.70711 3.70711L6.41421 5H10.5C14.0899 5 17 7.91015 17 11.5C17 15.0899 14.0898 18 10.5 18C6.91015 18 4 15.0899 4 11.5C4 10.9477 4.44771 10.5 5 10.5C5.55228 10.5 6 10.9477 6 11.5C6 13.9853 8.01472 16 10.5 16C12.9853 16 15 13.9853 15 11.5C15 9.01472 12.9853 7 10.5 7H6.41421L7.70711 8.29289C8.09763 8.68342 8.09763 9.31658 7.70711 9.70711C7.31658 10.0976 6.68342 10.0976 6.29289 9.70711L3.29289 6.70711Z" fill="currentColor"/>
</svg>
