<svg width="20" height="20" viewBox="0 0 20 20" fill="none" xmlns="http://www.w3.org/2000/svg">
<path opacity="0.1" d="M3 5H8H12C13.6569 5 15 6.34315 15 8V12V17H3V5Z" fill="currentColor"/>
<path fill-rule="evenodd" clip-rule="evenodd" d="M14.7071 2.29289C14.3166 1.90237 13.6834 1.90237 13.2929 2.29289C12.9024 2.68342 12.9024 3.31658 13.2929 3.70711L14.5858 5H13C10.2386 5 8 7.23858 8 10V12C8 12.5523 8.44772 13 9 13C9.55229 13 10 12.5523 10 12V10C10 8.34315 11.3431 7 13 7H14.5858L13.2929 8.29289C12.9024 8.68342 12.9024 9.31658 13.2929 9.70711C13.6834 10.0976 14.3166 10.0976 14.7071 9.70711L17.7071 6.70711C18.0976 6.31658 18.0976 5.68342 17.7071 5.29289L14.7071 2.29289ZM6.2 4L6.16146 4H6.16145C5.63431 3.99998 5.17955 3.99997 4.80497 4.03057C4.40963 4.06287 4.01641 4.13419 3.63803 4.32698C3.07354 4.6146 2.6146 5.07354 2.32698 5.63803C2.13419 6.01641 2.06287 6.40963 2.03057 6.80497C1.99997 7.17953 1.99998 7.63428 2 8.16141V8.16146V8.2V13.8V13.8385V13.8386C1.99998 14.3657 1.99997 14.8205 2.03057 15.195C2.06287 15.5904 2.13419 15.9836 2.32698 16.362C2.6146 16.9265 3.07354 17.3854 3.63803 17.673C4.01641 17.8658 4.40963 17.9371 4.80497 17.9694C5.17955 18 5.63432 18 6.16148 18H6.2H11.8H11.8385C12.3657 18 12.8205 18 13.195 17.9694C13.5904 17.9371 13.9836 17.8658 14.362 17.673C14.9265 17.3854 15.3854 16.9265 15.673 16.362C15.8658 15.9836 15.9371 15.5904 15.9694 15.195C16 14.8205 16 14.3657 16 13.8386V13.8385V13.8V13C16 12.4477 15.5523 12 15 12C14.4477 12 14 12.4477 14 13V13.8C14 14.3766 13.9992 14.7488 13.9761 15.0322C13.9539 15.3038 13.9162 15.4045 13.891 15.454C13.7951 15.6422 13.6422 15.7951 13.454 15.891C13.4045 15.9162 13.3038 15.9539 13.0322 15.9761C12.7488 15.9992 12.3766 16 11.8 16H6.2C5.62345 16 5.25118 15.9992 4.96784 15.9761C4.69618 15.9539 4.59546 15.9162 4.54601 15.891C4.35785 15.7951 4.20487 15.6422 4.109 15.454C4.0838 15.4045 4.04613 15.3038 4.02393 15.0322C4.00078 14.7488 4 14.3766 4 13.8V8.2C4 7.62345 4.00078 7.25117 4.02393 6.96784C4.04613 6.69617 4.0838 6.59545 4.109 6.54601C4.20487 6.35785 4.35785 6.20487 4.54601 6.10899C4.59546 6.0838 4.69618 6.04612 4.96784 6.02393C5.25118 6.00078 5.62345 6 6.2 6H7C7.55229 6 8 5.55228 8 5C8 4.44772 7.55229 4 7 4H6.2Z" fill="currentColor"/>
</svg>
