<svg width="20" height="20" viewBox="0 0 20 20" fill="currentColor" xmlns="http://www.w3.org/2000/svg">
<path fill-rule="evenodd" clip-rule="evenodd" d="M9.88509 1.99998H10.1149C10.8045 1.99963 11.3214 1.99938 11.7961 2.11653C12.7989 2.36399 13.667 2.98971 14.2188 3.86272C14.4801 4.27602 14.6433 4.76652 14.8611 5.42081L14.9487 5.68378C14.9836 5.78864 15.0003 5.8952 15.0003 5.99997H17C17.5523 5.99997 18 6.44768 18 6.99997C18 7.55225 17.5523 7.99997 17 7.99997H3C2.44772 7.99997 2 7.55225 2 6.99997C2 6.44768 2.44772 5.99997 3 5.99997H4.99973C4.99975 5.8952 5.01636 5.78864 5.05132 5.68379L5.13894 5.42081C5.35667 4.76651 5.5199 4.27602 5.78116 3.86272C6.33301 2.98971 7.20115 2.36399 8.20387 2.11653C8.67857 1.99938 9.19552 1.99963 9.88509 1.99998ZM7.05423 5.99997H12.9458C12.7171 5.3175 12.6345 5.09934 12.5283 4.93137C12.2524 4.49486 11.8183 4.182 11.3169 4.05827C11.1095 4.00707 10.8555 4.00001 10 4.00001C9.14446 4.00001 8.89054 4.00707 8.68307 4.05827C8.18171 4.182 7.74764 4.49486 7.47172 4.93137C7.36553 5.09934 7.28287 5.3175 7.05423 5.99997Z" fill="currentColor"/>
<path d="M15.1414 9.01005C15.6882 9.08815 16.0681 9.59468 15.99 10.1414L15.5509 13.2151C15.4615 13.8404 15.3874 14.3593 15.2969 14.783C15.2026 15.2248 15.078 15.6281 14.8578 16.0076C14.4113 16.777 13.7211 17.3756 12.8963 17.7088C12.4894 17.8732 12.0726 17.9394 11.6219 17.9704C11.1897 18 10.6655 18 10.0338 18H9.96616C9.33454 18 8.81031 18 8.3781 17.9704C7.92742 17.9394 7.51059 17.8732 7.1037 17.7088C6.2789 17.3756 5.58868 16.777 5.1422 16.0076C4.92195 15.6281 4.79744 15.2248 4.70308 14.783C4.6126 14.3594 4.53847 13.8404 4.44915 13.2151L4.01005 10.1414C3.93195 9.59468 4.31185 9.08815 4.85858 9.01005C5.40531 8.93194 5.91185 9.31184 5.98995 9.85857L6.42427 12.8988C6.51958 13.566 6.58452 14.0167 6.65897 14.3653C6.73117 14.7033 6.79966 14.8791 6.87205 15.0038C7.09529 15.3885 7.44039 15.6878 7.8528 15.8544C7.98651 15.9084 8.17017 15.9514 8.51503 15.975C8.87065 15.9995 9.326 16 10 16C10.674 16 11.1293 15.9995 11.485 15.975C11.8298 15.9514 12.0135 15.9084 12.1472 15.8544C12.5596 15.6878 12.9047 15.3885 13.128 15.0038C13.2003 14.8791 13.2688 14.7033 13.341 14.3653C13.4155 14.0167 13.4804 13.566 13.5757 12.8988L14.0101 9.85857C14.0882 9.31184 14.5947 8.93194 15.1414 9.01005Z" fill="currentColor"/>
</svg>
