<svg width="20" height="20" viewBox="0 0 20 20" fill="none" xmlns="http://www.w3.org/2000/svg">
<path opacity="0.1" fill-rule="evenodd" clip-rule="evenodd" d="M11 12H13.4C13.9601 12 14.2401 12 14.454 11.891C14.6422 11.7951 14.7951 11.6422 14.891 11.454C15 11.2401 15 10.9601 15 10.4V6.4399C15 6.16781 15 6.03176 14.9664 5.90547C14.9367 5.79356 14.8877 5.68767 14.8217 5.59252C14.7472 5.48514 14.6436 5.39703 14.4362 5.22081L14.4362 5.2208L13.4481 4.3809L13.4481 4.38089C13.2822 4.23987 13.1993 4.16936 13.1058 4.11915C13.0229 4.07461 12.9342 4.04199 12.8422 4.02225C12.7385 4 12.6296 4 12.4119 4H10.6C10.0399 4 9.75992 4 9.54601 4.10899C9.35785 4.20487 9.20487 4.35785 9.10899 4.54601C9 4.75992 9 5.03995 9 5.6V8H6.6C6.03995 8 5.75992 8 5.54601 8.10899C5.35785 8.20487 5.20487 8.35785 5.10899 8.54601C5 8.75992 5 9.03995 5 9.6V14.4C5 14.9601 5 15.2401 5.10899 15.454C5.20487 15.6422 5.35785 15.7951 5.54601 15.891C5.75992 16 6.03995 16 6.6 16H9.4C9.96005 16 10.2401 16 10.454 15.891C10.6422 15.7951 10.7951 15.6422 10.891 15.454C11 15.2401 11 14.9601 11 14.4V12Z" fill="currentColor"/>
<path fill-rule="evenodd" clip-rule="evenodd" d="M13.0019 4.41793C13.0045 4.66888 13.0103 4.86585 13.0239 5.03217C13.0461 5.30384 13.0838 5.40456 13.109 5.454C13.2049 5.64216 13.3579 5.79514 13.546 5.89102C13.5955 5.91621 13.6962 5.95389 13.9678 5.97608C14.1342 5.98967 14.3311 5.99555 14.5821 5.99809C14.5222 5.93697 14.4481 5.86233 14.3556 5.76986L13.2302 4.64438C13.1377 4.5519 13.063 4.47781 13.0019 4.41793ZM15 7.99998C14.541 7.9997 14.1408 7.99688 13.805 7.96944C13.4096 7.93714 13.0164 7.86582 12.638 7.67303C12.0735 7.38541 11.6146 6.92647 11.327 6.36198C11.1342 5.9836 11.0629 5.59038 11.0306 5.19504C11.0031 4.85928 11.0003 4.45909 11 4.00008C10.5349 4.00052 10.217 4.00358 9.96784 4.02394C9.69618 4.04613 9.59546 4.08381 9.54601 4.109C9.35785 4.20488 9.20487 4.35786 9.109 4.54602C9.0838 4.59546 9.04613 4.69618 9.02393 4.96785C9.00078 5.25118 9 5.62346 9 6.20001V9.80001C9 10.3766 9.00078 10.7488 9.02393 11.0322C9.04613 11.3038 9.0838 11.4046 9.109 11.454C9.20487 11.6422 9.35785 11.7951 9.54601 11.891C9.59546 11.9162 9.69618 11.9539 9.96784 11.9761C10.2512 11.9992 10.6235 12 11.2 12H12.8C13.3766 12 13.7488 11.9992 14.0322 11.9761C14.3038 11.9539 14.4046 11.9162 14.454 11.891C14.6422 11.7951 14.7951 11.6422 14.891 11.454C14.9162 11.4046 14.9539 11.3038 14.9761 11.0322C14.9992 10.7488 15 10.3766 15 9.80001V7.99998ZM11.7578 1.99996C12.1647 1.99958 12.5235 1.99925 12.8719 2.0829C13.178 2.15639 13.4707 2.2776 13.7391 2.44209C14.0446 2.62932 14.298 2.88323 14.5855 3.17122L14.6444 3.23016L15.7699 4.35564L15.8288 4.41452C16.1168 4.70197 16.3707 4.9554 16.5579 5.26094C16.7224 5.52936 16.8436 5.82199 16.9171 6.1281C17.0008 6.47655 17.0004 6.83529 17.0001 7.24219L17 7.32549V9.80001V9.83853V9.83856C17 10.3657 17 10.8205 16.9694 11.195C16.9371 11.5904 16.8658 11.9836 16.673 12.362C16.3854 12.9265 15.9265 13.3854 15.362 13.673C14.9836 13.8658 14.5904 13.9371 14.195 13.9694C13.8592 13.9969 13.459 13.9997 13 14C12.9997 14.459 12.9969 14.8592 12.9694 15.195C12.9371 15.5904 12.8658 15.9836 12.673 16.362C12.3854 16.9265 11.9265 17.3854 11.362 17.673C10.9836 17.8658 10.5904 17.9371 10.195 17.9694C9.82045 18 9.36568 18 8.83853 18H8.8H7.2H7.16148C6.63432 18 6.17955 18 5.80497 17.9694C5.40963 17.9371 5.01641 17.8658 4.63803 17.673C4.07354 17.3854 3.6146 16.9265 3.32698 16.362C3.13419 15.9836 3.06287 15.5904 3.03057 15.195C2.99997 14.8205 2.99998 14.3657 3 13.8386V13.8385V13.8V10.2V10.1615V10.1614C2.99998 9.63428 2.99997 9.17953 3.03057 8.80497C3.06287 8.40963 3.13419 8.01641 3.32698 7.63803C3.6146 7.07354 4.07354 6.6146 4.63803 6.32698C5.01641 6.13419 5.40963 6.06287 5.80497 6.03057C6.14076 6.00313 6.54099 6.00031 7.00003 6.00003C7.00031 5.54099 7.00314 5.14076 7.03057 4.80498C7.06288 4.40964 7.13419 4.01642 7.32699 3.63804C7.61461 3.07355 8.07355 2.61461 8.63803 2.32699C9.01641 2.1342 9.40963 2.06288 9.80498 2.03058C10.1795 1.99998 10.6343 1.99999 11.1615 2.00001L11.2 2.00001H11.6745L11.7578 1.99996ZM9.80498 13.9694C10.1407 13.9969 10.5409 13.9997 10.9999 14C10.9995 14.4651 10.9964 14.783 10.9761 15.0322C10.9539 15.3038 10.9162 15.4045 10.891 15.454C10.7951 15.6422 10.6422 15.7951 10.454 15.891C10.4045 15.9162 10.3038 15.9539 10.0322 15.9761C9.74883 15.9992 9.37656 16 8.8 16H7.2C6.62345 16 6.25118 15.9992 5.96784 15.9761C5.69618 15.9539 5.59546 15.9162 5.54601 15.891C5.35785 15.7951 5.20487 15.6422 5.109 15.454C5.0838 15.4045 5.04613 15.3038 5.02393 15.0322C5.00078 14.7488 5 14.3766 5 13.8V10.2C5 9.62345 5.00078 9.25117 5.02393 8.96784C5.04613 8.69617 5.0838 8.59545 5.109 8.54601C5.20487 8.35785 5.35785 8.20487 5.54601 8.10899C5.59546 8.0838 5.69618 8.04612 5.96784 8.02393C6.21699 8.00357 6.5349 8.00051 7 8.00007V9.80001L7 9.83855V9.83856V9.83856C6.99999 10.3657 6.99997 10.8205 7.03057 11.195C7.06288 11.5904 7.13419 11.9836 7.32699 12.362C7.61461 12.9265 8.07355 13.3854 8.63803 13.673C9.01641 13.8658 9.40963 13.9371 9.80498 13.9694Z" fill="currentColor"/>
</svg>
