<svg width="20" height="20" viewBox="0 0 20 20" fill="none" xmlns="http://www.w3.org/2000/svg">
<rect opacity="0.15" x="3" y="5" width="14" height="12" rx="2" fill="currentColor"/>
<path fill-rule="evenodd" clip-rule="evenodd" d="M10.7071 13.7071L14.7071 9.70711C15.0976 9.31658 15.0976 8.68342 14.7071 8.29289C14.3166 7.90237 13.6834 7.90237 13.2929 8.29289L11 10.5858V3C11 2.44771 10.5523 2 10 2C9.44772 2 9 2.44771 9 3V10.5858L6.70711 8.29289C6.31658 7.90237 5.68342 7.90237 5.29289 8.29289C4.90237 8.68342 4.90237 9.31658 5.29289 9.70711L9.29289 13.7071C9.68342 14.0976 10.3166 14.0976 10.7071 13.7071ZM3 12C3.55229 12 4 12.4477 4 13V13.8C4 14.3766 4.00078 14.7488 4.02393 15.0322C4.04612 15.3038 4.0838 15.4045 4.10899 15.454C4.20487 15.6422 4.35785 15.7951 4.54601 15.891C4.59545 15.9162 4.69617 15.9539 4.96784 15.9761C5.25117 15.9992 5.62345 16 6.2 16H13.8C14.3766 16 14.7488 15.9992 15.0322 15.9761C15.3038 15.9539 15.4045 15.9162 15.454 15.891C15.6422 15.7951 15.7951 15.6422 15.891 15.454C15.9162 15.4045 15.9539 15.3038 15.9761 15.0322C15.9992 14.7488 16 14.3766 16 13.8V13C16 12.4477 16.4477 12 17 12C17.5523 12 18 12.4477 18 13V13.8V13.8385C18 14.3657 18 14.8205 17.9694 15.195C17.9371 15.5904 17.8658 15.9836 17.673 16.362C17.3854 16.9265 16.9265 17.3854 16.362 17.673C15.9836 17.8658 15.5904 17.9371 15.195 17.9694C14.8205 18 14.3657 18 13.8385 18H13.8H6.2H6.16146C5.63431 18 5.17954 18 4.80497 17.9694C4.40963 17.9371 4.01641 17.8658 3.63803 17.673C3.07354 17.3854 2.6146 16.9265 2.32698 16.362C2.13419 15.9836 2.06287 15.5904 2.03057 15.195C1.99997 14.8205 1.99998 14.3657 2 13.8385V13.8V13C2 12.4477 2.44772 12 3 12Z" fill="currentColor"/>
</svg>
