<svg width="20" height="20" viewBox="0 0 20 20" fill="currentColor" xmlns="http://www.w3.org/2000/svg">
<path fill-rule="evenodd" clip-rule="evenodd" d="M13.7071 2.29289C13.3166 1.90237 12.6834 1.90237 12.2929 2.29289L9.29289 5.29289C8.90237 5.68342 8.90237 6.31658 9.29289 6.70711C9.68342 7.09763 10.3166 7.09763 10.7071 6.70711L12 5.41421V11C12 11.5523 12.4477 12 13 12C13.5523 12 14 11.5523 14 11V5.41421L15.2929 6.70711C15.6834 7.09763 16.3166 7.09763 16.7071 6.70711C17.0976 6.31658 17.0976 5.68342 16.7071 5.29289L13.7071 2.29289ZM10.7071 14.7071L7.7071 17.7071C7.31658 18.0976 6.68342 18.0976 6.29289 17.7071L3.29289 14.7071C2.90237 14.3166 2.90237 13.6834 3.29289 13.2929C3.68342 12.9024 4.31658 12.9024 4.7071 13.2929L6 14.5858V9C6 8.44771 6.44771 8 7 8C7.55228 8 8 8.44771 8 9V14.5858L9.29289 13.2929C9.68342 12.9024 10.3166 12.9024 10.7071 13.2929C11.0976 13.6834 11.0976 14.3166 10.7071 14.7071Z" fill="currentColor"/>
</svg>
