<svg width="20" height="20" viewBox="0 0 20 20" fill="currentColor" xmlns="http://www.w3.org/2000/svg">
<path fill-rule="evenodd" clip-rule="evenodd" d="M10.7071 2.29289C10.3166 1.90237 9.68342 1.90237 9.2929 2.29289L5.2929 6.29289C4.90237 6.68342 4.90237 7.31658 5.2929 7.70711C5.68342 8.09763 6.31659 8.09763 6.70711 7.70711L9 5.41421V13C9 13.5523 9.44772 14 10 14C10.5523 14 11 13.5523 11 13V5.41421L13.2929 7.70711C13.6834 8.09763 14.3166 8.09763 14.7071 7.70711C15.0976 7.31658 15.0976 6.68342 14.7071 6.29289L10.7071 2.29289ZM4 11C4 10.4477 3.55229 10 3 10C2.44772 10 2 10.4477 2 11V13.8V13.8385V13.8386C1.99998 14.3657 1.99997 14.8205 2.03057 15.195C2.06287 15.5904 2.13419 15.9836 2.32698 16.362C2.6146 16.9265 3.07354 17.3854 3.63803 17.673C4.01641 17.8658 4.40963 17.9371 4.80497 17.9694C5.17955 18 5.63431 18 6.16146 18H6.2H13.8H13.8385C14.3657 18 14.8205 18 15.195 17.9694C15.5904 17.9371 15.9836 17.8658 16.362 17.673C16.9265 17.3854 17.3854 16.9265 17.673 16.362C17.8658 15.9836 17.9371 15.5904 17.9694 15.195C18 14.8205 18 14.3658 18 13.8386V13.8385V13.8V11C18 10.4477 17.5523 10 17 10C16.4477 10 16 10.4477 16 11V13.8C16 14.3766 15.9992 14.7488 15.9761 15.0322C15.9539 15.3038 15.9162 15.4045 15.891 15.454C15.7951 15.6422 15.6422 15.7951 15.454 15.891C15.4045 15.9162 15.3038 15.9539 15.0322 15.9761C14.7488 15.9992 14.3766 16 13.8 16H6.2C5.62345 16 5.25118 15.9992 4.96784 15.9761C4.69618 15.9539 4.59546 15.9162 4.54601 15.891C4.35785 15.7951 4.20487 15.6422 4.109 15.454C4.0838 15.4045 4.04613 15.3038 4.02393 15.0322C4.00078 14.7488 4 14.3766 4 13.8V11Z" fill="currentColor"/>
</svg>
