<svg width="20" height="20" viewBox="0 0 20 20" fill="none" xmlns="http://www.w3.org/2000/svg">
<path opacity="0.1" d="M7.57397 5H6C4.34315 5 3 6.34314 3 8C3 9.65685 4.34315 11 6 11H7.57219C8.40367 11 8.8194 11 9.22961 11.0424C9.72624 11.0937 10.217 11.1915 10.6954 11.3343C11.0905 11.4522 11.4746 11.6115 12.2426 11.93L14.63 12.92L13 8L14.6304 3.08215L12.2414 4.07165C11.4732 4.38983 11.0891 4.54892 10.6939 4.66671C10.2165 4.80899 9.72689 4.90637 9.23142 4.95759C8.8212 5 8.40546 5 7.57397 5Z" fill="currentColor"/>
<path fill-rule="evenodd" clip-rule="evenodd" d="M14.5143 4.83586C14.2103 5.59568 14 6.71394 14 8C14 9.28606 14.2103 10.4043 14.5143 11.1641C14.6673 11.5468 14.8246 11.7894 14.9481 11.92C14.9682 11.9413 14.9855 11.9577 15 11.9704C15.0144 11.9577 15.0318 11.9413 15.0519 11.92C15.1754 11.7894 15.3327 11.5468 15.4857 11.1641C15.7897 10.4043 16 9.28606 16 8C16 6.71394 15.7897 5.59568 15.4857 4.83586C15.3327 4.45317 15.1754 4.21059 15.0519 4.08003C15.0318 4.0587 15.0145 4.04225 15 4.02965C14.9855 4.04225 14.9682 4.0587 14.9481 4.08003C14.8246 4.21059 14.6673 4.45317 14.5143 4.83586ZM15.0546 3.99108C15.0546 3.99124 15.0528 3.99216 15.0494 3.99334C15.0528 3.99151 15.0546 3.99092 15.0546 3.99108ZM15.0494 12.0067C15.0528 12.0078 15.0546 12.0088 15.0546 12.0089C15.0546 12.0091 15.0528 12.0085 15.0494 12.0067ZM10.9795 5.62505C11.3726 5.50787 11.7529 5.35568 12.3312 5.11675C12.1167 5.97703 12 6.9655 12 8C12 9.03493 12.1168 10.0238 12.3315 10.8843C11.7541 10.6455 11.3742 10.4933 10.9814 10.3761C10.4432 10.2154 9.89114 10.1055 9.33243 10.0477C8.87051 9.99995 8.40668 9.99997 7.62956 9.99999L7.57219 9.99999H6C4.89543 9.99999 4 9.10456 4 8C4 6.89543 4.89543 6 6 6H7.57397L7.63134 6C8.40847 6.00002 8.87231 6.00004 9.33425 5.95229C9.89165 5.89467 10.4425 5.78511 10.9795 5.62505ZM14.2469 13.8437L14.2486 13.8398C14.4736 13.9392 14.7246 14 15 14C15.6397 14 16.148 13.6718 16.505 13.2942C16.8601 12.9187 17.1338 12.4291 17.3427 11.9069C17.7626 10.8571 18 9.47536 18 8C18 6.52464 17.7626 5.1429 17.3427 4.09308C17.1338 3.57094 16.8601 3.08129 16.505 2.70582C16.148 2.32823 15.6397 2 15 2C14.7246 2 14.4736 2.06082 14.2485 2.16021L14.2477 2.15826L11.8587 3.14776C11.0724 3.47344 10.7428 3.60866 10.4082 3.70837C9.99053 3.83286 9.56213 3.91807 9.12859 3.96289C8.78135 3.99879 8.42505 4 7.57397 4H6C3.79086 4 2 5.79086 2 8C2 9.53109 2.86024 10.8613 4.12376 11.5336L5.78641 16.5215C6.08072 17.4044 6.90701 18 7.83772 18C9.03192 18 10 17.0319 10 15.8377V12.1837C10.1374 12.2158 10.274 12.2521 10.4093 12.2925C10.7438 12.3923 11.0734 12.5277 11.8596 12.8537L14.2469 13.8437ZM8 12.0003C7.87251 12 7.73096 12 7.57219 12H6.38742L7.68377 15.889C7.70586 15.9553 7.76787 16 7.83772 16C7.92735 16 8 15.9273 8 15.8377V12.0003Z" fill="currentColor"/>
</svg>
